<svg xmlns="http://www.w3.org/2000/svg" viewBox="0 0 1407 313" role="img" aria-labelledby="title desc">
  <title id="title">Relay logo</title>
  <desc id="desc">Transparent vector logo traced from the supplied Relay artwork, with a gold R mark and white ELAY lettering.</desc>
  <!-- Transparent background -->
  <path d="M 62.0 24.0 L 63.0 25.0 L 63.0 26.0 L 71.0 34.0 L 71.0 35.0 L 77.0 41.0 L 77.0 42.0 L 84.0 49.0 L 84.0 50.0 L 91.0 57.0 L 91.0 58.0 L 99.0 66.0 L 99.0 67.0 L 107.0 75.0 L 107.0 76.0 L 114.0 83.0 L 114.0 84.0 L 115.0 85.0 L 121.0 85.0 L 122.0 86.0 L 133.0 86.0 L 134.0 87.0 L 134.0 88.0 L 132.0 90.0 L 132.0 91.0 L 125.0 98.0 L 125.0 99.0 L 119.0 105.0 L 119.0 106.0 L 111.0 114.0 L 111.0 115.0 L 104.0 122.0 L 104.0 123.0 L 96.0 131.0 L 96.0 132.0 L 87.0 141.0 L 87.0 142.0 L 78.0 151.0 L 78.0 152.0 L 69.0 161.0 L 69.0 162.0 L 61.0 170.0 L 61.0 171.0 L 53.0 179.0 L 53.0 180.0 L 44.0 189.0 L 44.0 190.0 L 37.0 197.0 L 56.0 197.0 L 57.0 196.0 L 69.0 196.0 L 70.0 195.0 L 79.0 195.0 L 80.0 194.0 L 84.0 194.0 L 85.0 195.0 L 85.0 196.0 L 83.0 198.0 L 82.0 201.0 L 80.0 203.0 L 80.0 204.0 L 78.0 206.0 L 78.0 207.0 L 76.0 209.0 L 76.0 210.0 L 72.0 215.0 L 71.0 218.0 L 69.0 220.0 L 69.0 221.0 L 67.0 223.0 L 67.0 224.0 L 65.0 226.0 L 65.0 227.0 L 63.0 229.0 L 63.0 230.0 L 59.0 235.0 L 58.0 238.0 L 56.0 240.0 L 56.0 241.0 L 54.0 243.0 L 54.0 244.0 L 50.0 249.0 L 49.0 252.0 L 46.0 255.0 L 46.0 256.0 L 44.0 258.0 L 44.0 259.0 L 42.0 261.0 L 42.0 262.0 L 40.0 264.0 L 40.0 265.0 L 38.0 267.0 L 38.0 268.0 L 36.0 270.0 L 36.0 271.0 L 34.0 273.0 L 34.0 274.0 L 32.0 276.0 L 32.0 277.0 L 30.0 279.0 L 30.0 280.0 L 28.0 282.0 L 28.0 283.0 L 24.0 288.0 L 25.0 288.0 L 31.0 282.0 L 32.0 282.0 L 36.0 278.0 L 37.0 278.0 L 43.0 272.0 L 44.0 272.0 L 49.0 267.0 L 50.0 267.0 L 56.0 261.0 L 57.0 261.0 L 63.0 255.0 L 64.0 255.0 L 70.0 249.0 L 71.0 249.0 L 77.0 243.0 L 78.0 243.0 L 84.0 237.0 L 85.0 237.0 L 91.0 231.0 L 92.0 231.0 L 98.0 225.0 L 99.0 225.0 L 106.0 218.0 L 107.0 218.0 L 113.0 212.0 L 114.0 212.0 L 122.0 204.0 L 123.0 204.0 L 129.0 198.0 L 130.0 198.0 L 140.0 188.0 L 141.0 188.0 L 147.0 182.0 L 148.0 182.0 L 158.0 172.0 L 159.0 172.0 L 167.0 164.0 L 168.0 164.0 L 176.0 156.0 L 177.0 156.0 L 185.0 148.0 L 186.0 148.0 L 187.0 147.0 L 150.0 147.0 L 149.0 146.0 L 149.0 145.0 L 151.0 143.0 L 151.0 142.0 L 162.0 131.0 L 162.0 130.0 L 176.0 116.0 L 176.0 115.0 L 185.0 106.0 L 185.0 105.0 L 197.0 93.0 L 197.0 92.0 L 203.0 86.0 L 286.0 86.0 L 287.0 85.0 L 290.0 85.0 L 291.0 86.0 L 297.0 86.0 L 298.0 87.0 L 301.0 88.0 L 303.0 90.0 L 303.0 91.0 L 305.0 94.0 L 305.0 97.0 L 302.0 100.0 L 302.0 101.0 L 287.0 116.0 L 287.0 117.0 L 272.0 132.0 L 272.0 133.0 L 264.0 141.0 L 264.0 142.0 L 263.0 143.0 L 262.0 143.0 L 260.0 145.0 L 259.0 145.0 L 258.0 146.0 L 255.0 146.0 L 254.0 147.0 L 209.0 147.0 L 201.0 155.0 L 200.0 155.0 L 192.0 163.0 L 191.0 163.0 L 177.0 177.0 L 176.0 177.0 L 164.0 189.0 L 183.0 189.0 L 184.0 190.0 L 192.0 190.0 L 195.0 193.0 L 195.0 194.0 L 199.0 198.0 L 199.0 199.0 L 203.0 203.0 L 203.0 204.0 L 207.0 208.0 L 207.0 209.0 L 211.0 213.0 L 211.0 214.0 L 216.0 219.0 L 216.0 220.0 L 220.0 224.0 L 220.0 225.0 L 224.0 229.0 L 224.0 230.0 L 228.0 234.0 L 228.0 235.0 L 232.0 239.0 L 232.0 240.0 L 237.0 245.0 L 237.0 246.0 L 240.0 249.0 L 240.0 250.0 L 243.0 253.0 L 243.0 254.0 L 248.0 259.0 L 248.0 260.0 L 252.0 264.0 L 252.0 265.0 L 255.0 268.0 L 255.0 269.0 L 259.0 273.0 L 259.0 274.0 L 263.0 278.0 L 263.0 279.0 L 267.0 283.0 L 267.0 284.0 L 268.0 285.0 L 389.0 285.0 L 382.0 278.0 L 382.0 277.0 L 371.0 266.0 L 371.0 265.0 L 361.0 255.0 L 361.0 254.0 L 352.0 245.0 L 352.0 244.0 L 341.0 233.0 L 341.0 232.0 L 329.0 220.0 L 329.0 219.0 L 321.0 211.0 L 321.0 210.0 L 310.0 199.0 L 310.0 198.0 L 303.0 191.0 L 303.0 190.0 L 304.0 189.0 L 307.0 189.0 L 308.0 188.0 L 311.0 188.0 L 312.0 187.0 L 313.0 187.0 L 315.0 185.0 L 316.0 185.0 L 318.0 183.0 L 319.0 183.0 L 392.0 110.0 L 392.0 109.0 L 394.0 107.0 L 394.0 106.0 L 395.0 105.0 L 395.0 104.0 L 398.0 99.0 L 398.0 96.0 L 399.0 95.0 L 399.0 82.0 L 398.0 81.0 L 398.0 78.0 L 397.0 77.0 L 397.0 76.0 L 396.0 75.0 L 395.0 72.0 L 392.0 69.0 L 392.0 68.0 L 389.0 65.0 L 389.0 64.0 L 386.0 61.0 L 386.0 60.0 L 382.0 56.0 L 382.0 55.0 L 379.0 52.0 L 379.0 51.0 L 371.0 42.0 L 371.0 41.0 L 366.0 36.0 L 366.0 35.0 L 358.0 27.0 L 357.0 27.0 L 354.0 25.0 L 351.0 25.0 L 350.0 24.0 Z" fill="#FFC928" fill-rule="evenodd" clip-rule="evenodd"/>
  <path d="M 1119.0 77.0 L 1122.0 80.0 L 1122.0 81.0 L 1126.0 85.0 L 1126.0 86.0 L 1129.0 89.0 L 1129.0 90.0 L 1133.0 94.0 L 1133.0 95.0 L 1137.0 99.0 L 1137.0 100.0 L 1141.0 104.0 L 1141.0 105.0 L 1145.0 109.0 L 1145.0 110.0 L 1148.0 113.0 L 1148.0 114.0 L 1152.0 118.0 L 1152.0 119.0 L 1157.0 124.0 L 1157.0 125.0 L 1161.0 129.0 L 1161.0 130.0 L 1164.0 133.0 L 1164.0 134.0 L 1169.0 139.0 L 1169.0 140.0 L 1173.0 144.0 L 1173.0 145.0 L 1176.0 148.0 L 1176.0 149.0 L 1180.0 153.0 L 1180.0 154.0 L 1184.0 158.0 L 1184.0 159.0 L 1188.0 163.0 L 1188.0 164.0 L 1192.0 168.0 L 1192.0 169.0 L 1196.0 173.0 L 1196.0 174.0 L 1200.0 178.0 L 1200.0 179.0 L 1204.0 183.0 L 1204.0 184.0 L 1209.0 189.0 L 1209.0 190.0 L 1213.0 194.0 L 1213.0 264.0 L 1214.0 265.0 L 1272.0 265.0 L 1273.0 264.0 L 1276.0 264.0 L 1276.0 196.0 L 1277.0 195.0 L 1277.0 194.0 L 1284.0 187.0 L 1284.0 186.0 L 1291.0 179.0 L 1291.0 178.0 L 1299.0 170.0 L 1299.0 169.0 L 1307.0 161.0 L 1307.0 160.0 L 1316.0 151.0 L 1316.0 150.0 L 1324.0 142.0 L 1324.0 141.0 L 1332.0 133.0 L 1332.0 132.0 L 1338.0 126.0 L 1338.0 125.0 L 1347.0 116.0 L 1347.0 115.0 L 1354.0 108.0 L 1354.0 107.0 L 1363.0 98.0 L 1363.0 97.0 L 1371.0 89.0 L 1371.0 88.0 L 1379.0 80.0 L 1379.0 79.0 L 1382.0 76.0 L 1306.0 76.0 L 1302.0 80.0 L 1302.0 81.0 L 1296.0 87.0 L 1296.0 88.0 L 1291.0 93.0 L 1291.0 94.0 L 1286.0 99.0 L 1286.0 100.0 L 1281.0 105.0 L 1281.0 106.0 L 1276.0 111.0 L 1276.0 112.0 L 1271.0 117.0 L 1271.0 118.0 L 1266.0 123.0 L 1266.0 124.0 L 1261.0 129.0 L 1261.0 130.0 L 1256.0 135.0 L 1256.0 136.0 L 1250.0 142.0 L 1250.0 143.0 L 1247.0 146.0 L 1245.0 146.0 L 1243.0 144.0 L 1243.0 143.0 L 1240.0 140.0 L 1240.0 139.0 L 1237.0 136.0 L 1237.0 135.0 L 1234.0 132.0 L 1234.0 131.0 L 1231.0 128.0 L 1231.0 127.0 L 1228.0 124.0 L 1228.0 123.0 L 1222.0 116.0 L 1222.0 115.0 L 1220.0 113.0 L 1220.0 112.0 L 1217.0 109.0 L 1217.0 108.0 L 1213.0 104.0 L 1213.0 103.0 L 1211.0 101.0 L 1211.0 100.0 L 1208.0 97.0 L 1208.0 96.0 L 1206.0 94.0 L 1206.0 93.0 L 1203.0 90.0 L 1203.0 89.0 L 1200.0 86.0 L 1200.0 85.0 L 1198.0 83.0 L 1198.0 82.0 L 1195.0 79.0 L 1195.0 78.0 L 1193.0 76.0 L 1119.0 76.0 Z M 880.0 264.0 L 883.0 264.0 L 884.0 265.0 L 945.0 265.0 L 947.0 263.0 L 947.0 262.0 L 948.0 261.0 L 948.0 260.0 L 949.0 259.0 L 949.0 258.0 L 950.0 257.0 L 950.0 256.0 L 951.0 255.0 L 951.0 254.0 L 952.0 253.0 L 952.0 252.0 L 953.0 251.0 L 953.0 250.0 L 954.0 249.0 L 954.0 248.0 L 955.0 247.0 L 955.0 246.0 L 956.0 245.0 L 956.0 244.0 L 957.0 243.0 L 957.0 242.0 L 958.0 241.0 L 958.0 240.0 L 959.0 239.0 L 959.0 238.0 L 960.0 237.0 L 960.0 236.0 L 961.0 235.0 L 962.0 232.0 L 964.0 230.0 L 1067.0 230.0 L 1070.0 233.0 L 1070.0 234.0 L 1071.0 235.0 L 1071.0 236.0 L 1072.0 237.0 L 1072.0 238.0 L 1073.0 239.0 L 1073.0 240.0 L 1074.0 241.0 L 1074.0 242.0 L 1075.0 243.0 L 1075.0 244.0 L 1076.0 245.0 L 1076.0 246.0 L 1077.0 247.0 L 1077.0 248.0 L 1078.0 249.0 L 1078.0 250.0 L 1079.0 251.0 L 1079.0 252.0 L 1080.0 253.0 L 1080.0 254.0 L 1081.0 255.0 L 1081.0 256.0 L 1082.0 257.0 L 1082.0 258.0 L 1083.0 259.0 L 1083.0 260.0 L 1084.0 261.0 L 1085.0 264.0 L 1086.0 264.0 L 1087.0 265.0 L 1149.0 265.0 L 1150.0 264.0 L 1153.0 264.0 L 1153.0 263.0 L 1152.0 262.0 L 1151.0 259.0 L 1149.0 257.0 L 1149.0 256.0 L 1148.0 255.0 L 1148.0 254.0 L 1147.0 253.0 L 1147.0 252.0 L 1146.0 251.0 L 1145.0 248.0 L 1143.0 246.0 L 1143.0 245.0 L 1142.0 244.0 L 1142.0 243.0 L 1141.0 242.0 L 1141.0 241.0 L 1140.0 240.0 L 1139.0 237.0 L 1137.0 235.0 L 1137.0 234.0 L 1136.0 233.0 L 1136.0 232.0 L 1135.0 231.0 L 1135.0 230.0 L 1134.0 229.0 L 1134.0 228.0 L 1133.0 227.0 L 1133.0 226.0 L 1132.0 225.0 L 1131.0 222.0 L 1129.0 220.0 L 1129.0 219.0 L 1128.0 218.0 L 1128.0 217.0 L 1127.0 216.0 L 1127.0 215.0 L 1126.0 214.0 L 1125.0 211.0 L 1123.0 209.0 L 1123.0 208.0 L 1122.0 207.0 L 1122.0 206.0 L 1121.0 205.0 L 1121.0 204.0 L 1120.0 203.0 L 1120.0 202.0 L 1119.0 201.0 L 1119.0 200.0 L 1118.0 199.0 L 1117.0 196.0 L 1115.0 194.0 L 1115.0 193.0 L 1114.0 192.0 L 1114.0 191.0 L 1113.0 190.0 L 1113.0 189.0 L 1112.0 188.0 L 1112.0 187.0 L 1111.0 186.0 L 1110.0 183.0 L 1108.0 181.0 L 1108.0 180.0 L 1107.0 179.0 L 1107.0 178.0 L 1106.0 177.0 L 1106.0 176.0 L 1105.0 175.0 L 1105.0 174.0 L 1104.0 173.0 L 1104.0 172.0 L 1103.0 171.0 L 1102.0 168.0 L 1100.0 166.0 L 1100.0 165.0 L 1099.0 164.0 L 1099.0 163.0 L 1098.0 162.0 L 1098.0 161.0 L 1097.0 160.0 L 1096.0 157.0 L 1094.0 155.0 L 1094.0 154.0 L 1093.0 153.0 L 1093.0 152.0 L 1092.0 151.0 L 1092.0 150.0 L 1091.0 149.0 L 1091.0 148.0 L 1090.0 147.0 L 1090.0 146.0 L 1089.0 145.0 L 1089.0 144.0 L 1088.0 143.0 L 1088.0 142.0 L 1087.0 141.0 L 1086.0 138.0 L 1084.0 136.0 L 1084.0 135.0 L 1083.0 134.0 L 1082.0 131.0 L 1080.0 129.0 L 1080.0 128.0 L 1079.0 127.0 L 1079.0 126.0 L 1078.0 125.0 L 1078.0 124.0 L 1077.0 123.0 L 1077.0 122.0 L 1076.0 121.0 L 1076.0 120.0 L 1075.0 119.0 L 1075.0 118.0 L 1074.0 117.0 L 1074.0 116.0 L 1073.0 115.0 L 1073.0 114.0 L 1072.0 113.0 L 1071.0 110.0 L 1069.0 108.0 L 1069.0 107.0 L 1068.0 106.0 L 1068.0 105.0 L 1067.0 104.0 L 1067.0 103.0 L 1066.0 102.0 L 1066.0 101.0 L 1065.0 100.0 L 1064.0 97.0 L 1062.0 95.0 L 1062.0 94.0 L 1061.0 93.0 L 1061.0 92.0 L 1060.0 91.0 L 1060.0 90.0 L 1059.0 89.0 L 1059.0 88.0 L 1058.0 87.0 L 1057.0 84.0 L 1055.0 82.0 L 1055.0 81.0 L 1054.0 80.0 L 1053.0 77.0 L 1052.0 76.0 L 982.0 76.0 L 981.0 77.0 L 981.0 78.0 L 980.0 79.0 L 980.0 80.0 L 979.0 81.0 L 979.0 82.0 L 978.0 83.0 L 978.0 84.0 L 977.0 85.0 L 977.0 86.0 L 976.0 87.0 L 975.0 90.0 L 973.0 92.0 L 973.0 93.0 L 972.0 94.0 L 972.0 95.0 L 971.0 96.0 L 971.0 97.0 L 970.0 98.0 L 970.0 99.0 L 969.0 100.0 L 968.0 103.0 L 966.0 105.0 L 966.0 106.0 L 965.0 107.0 L 965.0 108.0 L 964.0 109.0 L 964.0 110.0 L 963.0 111.0 L 963.0 112.0 L 962.0 113.0 L 962.0 114.0 L 961.0 115.0 L 961.0 116.0 L 960.0 117.0 L 959.0 120.0 L 957.0 122.0 L 957.0 123.0 L 956.0 124.0 L 956.0 125.0 L 955.0 126.0 L 954.0 129.0 L 952.0 131.0 L 952.0 132.0 L 951.0 133.0 L 951.0 134.0 L 950.0 135.0 L 950.0 136.0 L 949.0 137.0 L 948.0 140.0 L 946.0 142.0 L 946.0 143.0 L 945.0 144.0 L 945.0 145.0 L 944.0 146.0 L 944.0 147.0 L 943.0 148.0 L 943.0 149.0 L 942.0 150.0 L 941.0 153.0 L 939.0 155.0 L 939.0 156.0 L 938.0 157.0 L 938.0 158.0 L 937.0 159.0 L 937.0 160.0 L 936.0 161.0 L 935.0 164.0 L 933.0 166.0 L 933.0 167.0 L 932.0 168.0 L 932.0 169.0 L 931.0 170.0 L 931.0 171.0 L 930.0 172.0 L 929.0 175.0 L 927.0 177.0 L 927.0 178.0 L 926.0 179.0 L 926.0 180.0 L 925.0 181.0 L 925.0 182.0 L 924.0 183.0 L 924.0 184.0 L 923.0 185.0 L 922.0 188.0 L 920.0 190.0 L 919.0 193.0 L 917.0 195.0 L 917.0 196.0 L 916.0 197.0 L 916.0 198.0 L 915.0 199.0 L 915.0 200.0 L 914.0 201.0 L 914.0 202.0 L 913.0 203.0 L 912.0 206.0 L 910.0 208.0 L 910.0 209.0 L 909.0 210.0 L 909.0 211.0 L 908.0 212.0 L 908.0 213.0 L 907.0 214.0 L 906.0 217.0 L 904.0 219.0 L 904.0 220.0 L 903.0 221.0 L 903.0 222.0 L 902.0 223.0 L 901.0 226.0 L 899.0 228.0 L 899.0 229.0 L 898.0 230.0 L 898.0 231.0 L 897.0 232.0 L 897.0 233.0 L 896.0 234.0 L 896.0 235.0 L 895.0 236.0 L 894.0 239.0 L 892.0 241.0 L 892.0 242.0 L 891.0 243.0 L 891.0 244.0 L 890.0 245.0 L 889.0 248.0 L 887.0 250.0 L 887.0 251.0 L 886.0 252.0 L 886.0 253.0 L 885.0 254.0 L 885.0 255.0 L 884.0 256.0 L 884.0 257.0 L 883.0 258.0 L 883.0 259.0 Z M 1016.0 125.0 L 1017.0 125.0 L 1018.0 126.0 L 1018.0 127.0 L 1019.0 128.0 L 1019.0 129.0 L 1020.0 130.0 L 1020.0 131.0 L 1021.0 132.0 L 1021.0 133.0 L 1022.0 134.0 L 1022.0 135.0 L 1023.0 136.0 L 1023.0 137.0 L 1024.0 138.0 L 1024.0 139.0 L 1025.0 140.0 L 1025.0 141.0 L 1026.0 142.0 L 1026.0 143.0 L 1027.0 144.0 L 1027.0 145.0 L 1028.0 146.0 L 1028.0 147.0 L 1029.0 148.0 L 1029.0 149.0 L 1030.0 150.0 L 1030.0 151.0 L 1031.0 152.0 L 1031.0 153.0 L 1032.0 154.0 L 1032.0 155.0 L 1033.0 156.0 L 1033.0 157.0 L 1034.0 158.0 L 1034.0 159.0 L 1035.0 160.0 L 1035.0 161.0 L 1036.0 162.0 L 1036.0 163.0 L 1037.0 164.0 L 1037.0 165.0 L 1038.0 166.0 L 1038.0 167.0 L 1039.0 168.0 L 1039.0 169.0 L 1040.0 170.0 L 1040.0 171.0 L 1041.0 172.0 L 1041.0 173.0 L 1042.0 174.0 L 1042.0 175.0 L 1043.0 176.0 L 1043.0 177.0 L 1046.0 182.0 L 1046.0 184.0 L 1048.0 187.0 L 1048.0 188.0 L 1047.0 189.0 L 1044.0 189.0 L 1043.0 190.0 L 1035.0 190.0 L 1034.0 189.0 L 1016.0 189.0 L 1015.0 190.0 L 998.0 190.0 L 997.0 189.0 L 985.0 189.0 L 984.0 188.0 L 984.0 187.0 L 985.0 186.0 L 985.0 185.0 L 986.0 184.0 L 986.0 183.0 L 987.0 182.0 L 987.0 181.0 L 988.0 180.0 L 988.0 179.0 L 989.0 178.0 L 989.0 177.0 L 990.0 176.0 L 990.0 175.0 L 991.0 174.0 L 991.0 173.0 L 992.0 172.0 L 992.0 171.0 L 993.0 170.0 L 993.0 169.0 L 994.0 168.0 L 994.0 167.0 L 995.0 166.0 L 995.0 165.0 L 996.0 164.0 L 996.0 163.0 L 997.0 162.0 L 997.0 161.0 L 998.0 160.0 L 998.0 159.0 L 999.0 158.0 L 1000.0 155.0 L 1002.0 153.0 L 1002.0 152.0 L 1004.0 149.0 L 1004.0 147.0 L 1005.0 146.0 L 1005.0 145.0 L 1006.0 144.0 L 1006.0 143.0 L 1007.0 142.0 L 1007.0 141.0 L 1008.0 140.0 L 1008.0 139.0 L 1009.0 138.0 L 1009.0 137.0 L 1010.0 136.0 L 1010.0 135.0 L 1011.0 134.0 L 1011.0 133.0 L 1012.0 132.0 L 1012.0 131.0 L 1013.0 130.0 L 1014.0 127.0 Z M 674.0 76.0 L 674.0 264.0 L 677.0 264.0 L 678.0 265.0 L 699.0 265.0 L 700.0 264.0 L 706.0 264.0 L 707.0 265.0 L 855.0 265.0 L 856.0 264.0 L 856.0 216.0 L 738.0 216.0 L 736.0 214.0 L 736.0 76.0 Z M 437.0 76.0 L 437.0 264.0 L 438.0 265.0 L 439.0 264.0 L 440.0 264.0 L 441.0 265.0 L 627.0 265.0 L 628.0 264.0 L 628.0 219.0 L 627.0 218.0 L 500.0 218.0 L 499.0 217.0 L 499.0 189.0 L 500.0 188.0 L 605.0 188.0 L 605.0 146.0 L 500.0 146.0 L 499.0 145.0 L 499.0 119.0 L 500.0 118.0 L 625.0 118.0 L 625.0 76.0 Z" fill="#FFFFFF" fill-rule="evenodd" clip-rule="evenodd"/>
</svg>
